<svg width="328" height="108" viewBox="0 0 328 108" fill="none" xmlns="http://www.w3.org/2000/svg">
<path d="M22.088 87.28C8.904 87.28 0.584 81.136 0.584 70.64C0.584 60.784 8.52 55.664 21.064 54.256L49.992 51.184V47.472C49.992 36.976 45.384 33.264 33.224 33.264C21.448 33.264 15.688 37.104 15.688 46.448V46.96H1.992V46.448C1.992 31.984 14.024 21.104 34.248 21.104C54.472 21.104 63.56 32.112 63.56 47.344V86H50.888V70.128H49.992C46.664 80.88 36.552 87.28 22.088 87.28ZM14.408 69.744C14.408 74.864 17.864 77.296 25.8 77.296C40.264 77.296 49.992 71.92 49.992 59.376L25.032 62.192C17.864 63.088 14.408 64.752 14.408 69.744ZM103.932 87.28C83.836 87.28 72.7 73.84 72.7 54.256C72.7 34.416 83.708 21.104 103.036 21.104C118.14 21.104 126.716 28.912 129.276 39.664H130.044V0.239998H143.868V86H131.196V67.696H130.3C127.612 80.368 118.268 87.28 103.932 87.28ZM86.652 54.256C86.652 69.488 94.46 74.608 108.156 74.608C121.724 74.608 130.044 68.208 130.044 54.896V53.872C130.044 40.304 122.108 33.648 107.9 33.648C94.588 33.648 86.652 38.896 86.652 54.256ZM170.474 86H156.65V0.239998H170.474V86ZM215.275 87.28C194.411 87.28 180.715 75.504 180.715 54.256C180.715 34.416 194.283 21.104 215.019 21.104C234.731 21.104 248.171 31.984 248.171 51.312C248.171 53.616 248.043 55.408 247.659 57.328H193.643C194.155 69.616 200.171 76.144 214.891 76.144C228.203 76.144 233.707 71.792 233.707 64.24V63.216H247.531V64.368C247.531 77.936 234.219 87.28 215.275 87.28ZM214.763 31.984C200.683 31.984 194.539 38.256 193.771 49.648H235.115V49.392C235.115 37.616 228.331 31.984 214.763 31.984ZM268.765 107.76H259.677V95.216H272.093C277.725 95.216 280.029 93.68 281.949 89.328L283.485 86L252.125 22.384H267.613L283.869 56.176L290.141 71.408H291.165L297.181 56.048L312.157 22.384H327.389L294.237 92.912C288.989 104.304 281.821 107.76 268.765 107.76Z" fill="black"/>
</svg>
